# xmcd CD database file
#
# Track frame offsets:
#	150
#	13424
#	25858
#	36985
#	45323
#	57075
#	68823
#	101526
#	110812
#	126945
#	140126
#	175784
#	211533
#	250403
#	265073
#	271446
#	278878
#	293724
#	305235
#	315291
#	332565
#	348515
#
# Disc length: 4668 seconds
#
# Revision: 0
# Processed by: cddbd v1.4PL0 Copyright (c) Steve Scherf et al.
# Submitted via: CDex 1.40Release
#
DISCID=4f123a16
DTITLE=Country Tonite Theatre Singers - Country Tonite Live!
DYEAR=2003
DGENRE=Country
TTITLE0=Country Tonite Medley
TTITLE1=Love Sombebody
TTITLE2=When the Lights Go Down
TTITLE3=Who's Your Daddy
TTITLE4=Stand By Your Man
TTITLE5=When You're With Me
TTITLE6=Hall Of Fame Medley
TTITLE7=Rocky Top
TTITLE8=Orange Blossom Special
TTITLE9=He Stopped Loving Her Today
TTITLE10=Gospel Medley
TTITLE11=Hank Williams Medley
TTITLE12=Honky Tonk Medley
TTITLE13=Dont Fence Me In
TTITLE14=It's Only Make Believe
TTITLE15=Blue Moon of Kentucky
TTITLE16=You Can
TTITLE17=I Will Always Love You
TTITLE18=All Night Long
TTITLE19=Where Were You When The World Stopped Turning
TTITLE20=We Shall Be Free/God Bless the USA
TTITLE21=Goodnight
EXTD=YEAR: 2003 ID3G: 2
EXTT0=
EXTT1=
EXTT2=
EXTT3=
EXTT4=
EXTT5=
EXTT6=
EXTT7=
EXTT8=
EXTT9=
EXTT10=
EXTT11=
EXTT12=
EXTT13=
EXTT14=
EXTT15=
EXTT16=
EXTT17=
EXTT18=
EXTT19=
EXTT20=
EXTT21=
PLAYORDER=
